<mxfile host="app.diagrams.net" agent="Mozilla/5.0 (Windows NT 10.0; Win64; x64) AppleWebKit/537.36 (KHTML, like Gecko) Chrome/134.0.0.0 Safari/537.36 Edg/134.0.0.0" version="26.1.0">
  <diagram name="Page-1" id="TJs-7nuz9J66ABSabgTB">
    <mxGraphModel dx="1104" dy="855" grid="1" gridSize="10" guides="1" tooltips="1" connect="1" arrows="1" fold="1" page="1" pageScale="1" pageWidth="850" pageHeight="1100" math="0" shadow="0">
      <root>
        <mxCell id="0" />
        <mxCell id="1" parent="0" />
        <mxCell id="WSXo75BMICnkvVFDg_3Q-79" style="edgeStyle=orthogonalEdgeStyle;rounded=0;orthogonalLoop=1;jettySize=auto;html=1;entryX=0;entryY=0.5;entryDx=0;entryDy=0;exitX=0.5;exitY=1;exitDx=0;exitDy=0;" parent="1" source="bQh46Ddm-5ruJ5UZl0Re-3" target="bQh46Ddm-5ruJ5UZl0Re-5" edge="1">
          <mxGeometry relative="1" as="geometry">
            <mxPoint x="97" y="164.79999999999995" as="sourcePoint" />
            <mxPoint x="166.5400000000002" y="134.55999999999995" as="targetPoint" />
          </mxGeometry>
        </mxCell>
        <mxCell id="WSXo75BMICnkvVFDg_3Q-80" style="edgeStyle=orthogonalEdgeStyle;rounded=0;orthogonalLoop=1;jettySize=auto;html=1;entryX=0;entryY=0.5;entryDx=0;entryDy=0;exitX=0.5;exitY=1;exitDx=0;exitDy=0;" parent="1" source="bQh46Ddm-5ruJ5UZl0Re-3" target="bQh46Ddm-5ruJ5UZl0Re-4" edge="1">
          <mxGeometry relative="1" as="geometry">
            <mxPoint x="97" y="164.79999999999995" as="sourcePoint" />
            <mxPoint x="166.5400000000002" y="88.84000000000003" as="targetPoint" />
          </mxGeometry>
        </mxCell>
        <mxCell id="WSXo75BMICnkvVFDg_3Q-81" style="edgeStyle=orthogonalEdgeStyle;rounded=0;orthogonalLoop=1;jettySize=auto;html=1;entryX=0;entryY=0.5;entryDx=0;entryDy=0;exitX=0.5;exitY=1;exitDx=0;exitDy=0;" parent="1" source="bQh46Ddm-5ruJ5UZl0Re-3" target="bQh46Ddm-5ruJ5UZl0Re-6" edge="1">
          <mxGeometry relative="1" as="geometry">
            <mxPoint x="97" y="164.79999999999995" as="sourcePoint" />
            <mxPoint x="167.23000000000002" y="186.32000000000005" as="targetPoint" />
          </mxGeometry>
        </mxCell>
        <mxCell id="WSXo75BMICnkvVFDg_3Q-105" style="edgeStyle=orthogonalEdgeStyle;rounded=0;orthogonalLoop=1;jettySize=auto;html=1;entryX=0.5;entryY=1;entryDx=0;entryDy=0;startArrow=classic;startFill=1;endArrow=none;endFill=0;exitX=0;exitY=0.5;exitDx=0;exitDy=0;" parent="1" source="bQh46Ddm-5ruJ5UZl0Re-21" target="bQh46Ddm-5ruJ5UZl0Re-1" edge="1">
          <mxGeometry relative="1" as="geometry">
            <mxPoint x="510" y="205" as="sourcePoint" />
            <mxPoint x="450" y="130" as="targetPoint" />
          </mxGeometry>
        </mxCell>
        <mxCell id="WSXo75BMICnkvVFDg_3Q-107" style="edgeStyle=orthogonalEdgeStyle;rounded=0;orthogonalLoop=1;jettySize=auto;html=1;entryX=0.5;entryY=1;entryDx=0;entryDy=0;startArrow=classic;startFill=1;endArrow=none;endFill=0;exitX=0;exitY=0.5;exitDx=0;exitDy=0;" parent="1" source="bQh46Ddm-5ruJ5UZl0Re-17" target="bQh46Ddm-5ruJ5UZl0Re-1" edge="1">
          <mxGeometry relative="1" as="geometry">
            <mxPoint x="650" y="78.03448275862081" as="sourcePoint" />
            <mxPoint x="527" y="69.79999999999995" as="targetPoint" />
          </mxGeometry>
        </mxCell>
        <mxCell id="WSXo75BMICnkvVFDg_3Q-109" style="edgeStyle=orthogonalEdgeStyle;rounded=0;orthogonalLoop=1;jettySize=auto;html=1;entryX=0.5;entryY=1;entryDx=0;entryDy=0;startArrow=classic;startFill=1;endArrow=none;endFill=0;exitX=0;exitY=0.5;exitDx=0;exitDy=0;" parent="1" source="bQh46Ddm-5ruJ5UZl0Re-18" target="bQh46Ddm-5ruJ5UZl0Re-1" edge="1">
          <mxGeometry relative="1" as="geometry">
            <mxPoint x="640" y="125" as="sourcePoint" />
            <mxPoint x="527" y="69.79999999999995" as="targetPoint" />
          </mxGeometry>
        </mxCell>
        <mxCell id="bQh46Ddm-5ruJ5UZl0Re-1" value="Admin" style="rounded=1;whiteSpace=wrap;html=1;fillColor=default;fontColor=#000000;fontStyle=0;gradientColor=none;" parent="1" vertex="1">
          <mxGeometry x="320" y="40" width="60" height="60" as="geometry" />
        </mxCell>
        <mxCell id="bQh46Ddm-5ruJ5UZl0Re-2" value="Report" style="rounded=1;whiteSpace=wrap;html=1;fillColor=default;fontColor=#000000;fontStyle=0;gradientColor=none;" parent="1" vertex="1">
          <mxGeometry x="40" y="280" width="60" height="60" as="geometry" />
        </mxCell>
        <mxCell id="bQh46Ddm-5ruJ5UZl0Re-3" value="Collect" style="rounded=1;whiteSpace=wrap;html=1;fillColor=default;fontColor=#000000;fontStyle=0;gradientColor=none;" parent="1" vertex="1">
          <mxGeometry x="40" y="40" width="60" height="60" as="geometry" />
        </mxCell>
        <mxCell id="bQh46Ddm-5ruJ5UZl0Re-4" value="FINA Competitions" style="rounded=1;whiteSpace=wrap;html=1;fillColor=default;fontColor=#000000;fontStyle=0;gradientColor=none;align=left;spacingLeft=3;" parent="1" vertex="1">
          <mxGeometry x="100" y="120" width="200" height="30" as="geometry" />
        </mxCell>
        <mxCell id="bQh46Ddm-5ruJ5UZl0Re-5" value="UNAA Competitions" style="rounded=1;whiteSpace=wrap;html=1;fillColor=default;fontColor=#000000;fontStyle=0;gradientColor=none;align=left;spacingLeft=3;" parent="1" vertex="1">
          <mxGeometry x="100" y="170" width="200" height="30" as="geometry" />
        </mxCell>
        <mxCell id="bQh46Ddm-5ruJ5UZl0Re-6" value="CSNA Competitions" style="rounded=1;whiteSpace=wrap;html=1;fillColor=default;fontColor=#000000;fontStyle=0;gradientColor=none;align=left;spacingLeft=3;" parent="1" vertex="1">
          <mxGeometry x="100" y="220" width="200" height="30" as="geometry" />
        </mxCell>
        <mxCell id="bQh46Ddm-5ruJ5UZl0Re-8" value="Season planner" style="rounded=1;whiteSpace=wrap;html=1;fillColor=default;fontColor=#000000;fontStyle=0;gradientColor=none;align=left;spacingLeft=3;" parent="1" vertex="1">
          <mxGeometry x="100" y="360" width="200" height="30" as="geometry" />
        </mxCell>
        <mxCell id="bQh46Ddm-5ruJ5UZl0Re-16" style="edgeStyle=orthogonalEdgeStyle;rounded=0;orthogonalLoop=1;jettySize=auto;html=1;entryX=0.5;entryY=1;entryDx=0;entryDy=0;startArrow=classic;startFill=1;endArrow=none;endFill=0;exitX=0;exitY=0.5;exitDx=0;exitDy=0;" parent="1" source="bQh46Ddm-5ruJ5UZl0Re-8" target="bQh46Ddm-5ruJ5UZl0Re-2" edge="1">
          <mxGeometry relative="1" as="geometry">
            <mxPoint x="330" y="245" as="sourcePoint" />
            <mxPoint x="270" y="170" as="targetPoint" />
          </mxGeometry>
        </mxCell>
        <mxCell id="bQh46Ddm-5ruJ5UZl0Re-17" value="Gyms" style="rounded=1;whiteSpace=wrap;html=1;fillColor=default;fontColor=#000000;fontStyle=0;gradientColor=none;align=left;spacingLeft=3;" parent="1" vertex="1">
          <mxGeometry x="380" y="120" width="200" height="30" as="geometry" />
        </mxCell>
        <mxCell id="bQh46Ddm-5ruJ5UZl0Re-18" value="Hotels" style="rounded=1;whiteSpace=wrap;html=1;fillColor=default;fontColor=#000000;fontStyle=0;gradientColor=none;align=left;spacingLeft=3;" parent="1" vertex="1">
          <mxGeometry x="380" y="220" width="200" height="30" as="geometry" />
        </mxCell>
        <mxCell id="bQh46Ddm-5ruJ5UZl0Re-19" value="Gym Aliases" style="rounded=1;whiteSpace=wrap;html=1;fillColor=default;fontColor=#000000;fontStyle=0;gradientColor=none;align=left;spacingLeft=3;" parent="1" vertex="1">
          <mxGeometry x="380" y="170" width="200" height="30" as="geometry" />
        </mxCell>
        <mxCell id="bQh46Ddm-5ruJ5UZl0Re-20" style="edgeStyle=orthogonalEdgeStyle;rounded=0;orthogonalLoop=1;jettySize=auto;html=1;entryX=0.5;entryY=1;entryDx=0;entryDy=0;startArrow=classic;startFill=1;endArrow=none;endFill=0;exitX=0;exitY=0.5;exitDx=0;exitDy=0;" parent="1" source="bQh46Ddm-5ruJ5UZl0Re-19" target="bQh46Ddm-5ruJ5UZl0Re-1" edge="1">
          <mxGeometry relative="1" as="geometry">
            <mxPoint x="610" y="135" as="sourcePoint" />
            <mxPoint x="550" y="85" as="targetPoint" />
          </mxGeometry>
        </mxCell>
        <mxCell id="bQh46Ddm-5ruJ5UZl0Re-21" value="Competition attendance data" style="rounded=1;whiteSpace=wrap;html=1;fillColor=default;fontColor=#000000;fontStyle=0;gradientColor=none;align=left;spacingLeft=3;" parent="1" vertex="1">
          <mxGeometry x="380" y="270" width="200" height="30" as="geometry" />
        </mxCell>
      </root>
    </mxGraphModel>
  </diagram>
</mxfile>
